<svg class="main-svg" xmlns="http://www.w3.org/2000/svg" xmlns:xlink="http://www.w3.org/1999/xlink" width="371" height="336" style="" viewBox="0 0 371 336"><rect x="0" y="0" width="371" height="336" style="fill: rgb(255, 255, 255); fill-opacity: 1;"/><defs id="defs-7caef4"><g class="clips"><clipPath id="clip7caef4xyplot" class="plotclip"><rect width="251" height="216"/></clipPath><clipPath class="axesclip" id="clip7caef4x"><rect x="60" y="0" width="251" height="336"/></clipPath><clipPath class="axesclip" id="clip7caef4y"><rect x="0" y="60" width="371" height="216"/></clipPath><clipPath class="axesclip" id="clip7caef4xy"><rect x="60" y="60" width="251" height="216"/></clipPath></g><g class="gradients"/></defs><g class="bglayer"/><g class="layer-below"><g class="imagelayer"/><g class="shapelayer"/></g><g class="cartesianlayer"><g class="subplot xy"><g class="layer-subplot"><g class="shapelayer"/><g class="imagelayer"/></g><g class="gridlayer"><g class="x"><path class="xgrid crisp" transform="translate(123.07,0)" d="M0,60v216" style="stroke: rgb(238, 238, 238); stroke-opacity: 1; stroke-width: 1px;"/><path class="xgrid crisp" transform="translate(186.13,0)" d="M0,60v216" style="stroke: rgb(238, 238, 238); stroke-opacity: 1; stroke-width: 1px;"/><path class="xgrid crisp" transform="translate(249.2,0)" d="M0,60v216" style="stroke: rgb(238, 238, 238); stroke-opacity: 1; stroke-width: 1px;"/></g><g class="y"><path class="ygrid crisp" transform="translate(0,215.6)" d="M60,0h251" style="stroke: rgb(238, 238, 238); stroke-opacity: 1; stroke-width: 1px;"/><path class="ygrid crisp" transform="translate(0,164.54000000000002)" d="M60,0h251" style="stroke: rgb(238, 238, 238); stroke-opacity: 1; stroke-width: 1px;"/><path class="ygrid crisp" transform="translate(0,113.47999999999999)" d="M60,0h251" style="stroke: rgb(238, 238, 238); stroke-opacity: 1; stroke-width: 1px;"/><path class="ygrid crisp" transform="translate(0,62.42)" d="M60,0h251" style="stroke: rgb(238, 238, 238); stroke-opacity: 1; stroke-width: 1px;"/></g></g><g class="zerolinelayer"><path class="xzl zl crisp" transform="translate(60,0)" d="M0,60v216" style="stroke: rgb(68, 68, 68); stroke-opacity: 1; stroke-width: 1px;"/><path class="yzl zl crisp" transform="translate(0,266.65999999999997)" d="M60,0h251" style="stroke: rgb(68, 68, 68); stroke-opacity: 1; stroke-width: 1px;"/></g><path class="xlines-below"/><path class="ylines-below"/><g class="overlines-below"/><g class="xaxislayer-below"/><g class="yaxislayer-below"/><g class="overaxes-below"/><g class="plot" transform="translate(60, 60)" clip-path="url('#clip7caef4xyplot')"><g class="scatterlayer mlayer"><g class="trace scatter tracefc3310" style="stroke-miterlimit: 2; opacity: 1;"><g class="fills"/><g class="errorbars"/><g class="lines"><path class="js-line" d="M0,149.22L1.26,115.23L2.52,110.3L3.78,113.38L5.05,103.47L6.31,95.07L7.57,93.25L8.83,97.2L10.09,98.09L11.35,104.01L12.61,104.75L13.87,105.44L15.14,107.46L16.4,102.16L17.66,101.23L18.92,102.09L20.18,104.57L22.7,113.21L23.96,116.35L26.49,118.52L27.75,121.49L29.01,127.6L30.27,128.93L32.79,146.78L34.06,147.85L35.32,147.91L36.58,146.83L37.84,127.43L39.1,148.28L41.62,104.44L42.88,98.5L44.15,95.88L45.41,75.48L46.67,61.11L47.93,63.1L49.19,113.53L50.45,58.25L51.71,54.44L52.97,60.59L54.24,61.61L55.5,73.07L56.76,85.96L58.02,75.71L59.28,61.89L60.54,63.74L61.8,62.53L63.07,63.92L64.33,62.47L65.59,65.2L66.85,94.86L68.11,100.61L69.37,103.27L70.63,117.13L71.89,163.72L73.16,158.46L74.42,150.25L75.68,125.66L78.2,89.54L79.46,80.23L80.72,83.01L81.98,82.59L84.51,85.22L85.77,86.73L87.03,88.08L88.29,92.18L90.81,97.53L92.08,102.98L94.6,140.45L95.86,179.73L97.12,185.07L98.38,175.54L99.64,178.72L100.9,161.17L102.17,141.56L103.43,146.75L104.69,141.41L105.95,154.92L107.21,151.14L108.47,155.14L109.73,150.85L110.99,131.76L112.26,132.47L113.52,153.75L114.78,143.33L116.04,141L117.3,152.41L118.56,142.95L119.82,148.08L121.09,147.66L122.35,143.41L123.61,153.33L124.87,160.83L126.13,175.95L128.65,202.27L129.91,204.08L133.7,201.94L134.96,198.71L136.22,196.23L137.48,198.41L138.74,195.56L140.01,188.69L142.53,177.85L143.79,174.49L146.31,171.65L147.57,171.25L148.83,171.73L150.1,174.71L152.62,173.33L153.88,174.31L155.14,174.34L156.4,172.58L157.66,172.62L158.92,174.16L162.71,176.21L163.97,176.99L174.06,188.07L175.32,190.88L180.37,204.1L181.63,204.73L182.89,204.45L184.15,203.14L186.67,198.9L187.93,200.03L189.2,203.18L190.46,203.07L192.98,197.89L194.24,198.29L195.5,200.06L196.76,200.11L200.55,197.63L201.81,197.42L219.47,199.16L220.73,199.73L237.13,202.85L238.39,202.89L243.43,203.43L244.69,203.83L251,205.13" style="vector-effect: non-scaling-stroke; fill: none; stroke: rgb(31, 119, 180); stroke-opacity: 1; stroke-width: 2px; opacity: 1;"/></g><g class="points"/><g class="text"/></g><g class="trace scatter trace75ea3b" style="stroke-miterlimit: 2; opacity: 1;"><g class="fills"/><g class="errorbars"/><g class="lines"><path class="js-line" d="M0,146.57L1.26,107.65L2.52,100.25L3.78,102.52L5.05,89.7L6.31,79.13L7.57,75.39L8.83,78.54L10.09,78.36L11.35,84.97L12.61,84.1L13.87,85.4L15.14,88.62L17.66,80.88L18.92,80.7L20.18,83.05L21.44,87.01L23.96,91.09L25.23,91.17L26.49,90.74L27.75,92.22L29.01,94.63L30.27,93.54L32.79,99.15L34.06,95.63L35.32,95.72L36.58,105.89L37.84,100.6L39.1,107.64L41.62,90.52L42.88,93.06L44.15,96.08L45.41,78.08L46.67,66.14L47.93,69.8L49.19,121.38L50.45,67.46L51.71,64.38L52.97,71.22L54.24,72.89L55.5,83.96L56.76,96.08L58.02,87.81L59.28,76.21L60.54,78.28L61.8,77.93L63.07,79.71L64.33,78.64L65.59,81.5L66.85,107.97L68.11,114.16L69.37,117.02L70.63,133.8L71.89,168.09L73.16,163.55L74.42,156.46L75.68,141.9L78.2,103.69L79.46,95.63L80.72,98.73L81.98,98.42L84.51,101.27L85.77,102.78L87.03,104.02L88.29,108.23L90.81,113.2L92.08,118.77L94.6,148.73L95.86,182.6L97.12,187.2L98.38,178.68L99.64,181L100.9,164.73L102.17,146.5L103.43,146.96L107.21,147.27L108.47,146.57L110.99,142.34L112.26,143.25L113.52,146.42L114.78,147.51L116.04,145.91L117.3,147.33L118.56,147.63L119.82,146.41L121.09,146.4L122.35,147.55L126.13,176.93L127.39,186.47L128.65,202.28L129.91,204.01L133.7,201.13L134.96,196.88L136.22,193.7L137.48,196.42L138.74,192.84L140.01,184.05L142.53,170.6L143.79,166.62L146.31,163.52L147.57,163.21L148.83,163.73L150.1,167.45L151.36,167.12L152.62,165.9L155.14,167.67L156.4,165.87L157.66,165.96L158.92,167.92L163.97,170.74L165.23,171.99L170.28,178.52L171.54,180.24L174.06,182.98L175.32,186.61L180.37,203.78L181.63,204.46L182.89,203.93L184.15,201.86L186.67,195.25L187.93,197.06L189.2,202.03L190.46,201.86L192.98,193.87L194.24,194.32L195.5,196.93L196.76,197.01L200.55,192.82L201.81,192.59L206.85,193.04L208.12,193.8L214.42,195.08L215.68,194.58L218.21,195.03L219.47,195.61L223.25,197.06L224.51,197.25L227.04,197.86L228.3,198.02L233.34,199.99L234.6,199.92L237.13,201.2L238.39,201.13L239.65,201.21L240.91,202.12L244.69,202.64L245.95,203.23L247.22,203.01L248.48,203.74L251,204.94" style="vector-effect: non-scaling-stroke; fill: none; stroke: rgb(255, 127, 14); stroke-opacity: 1; stroke-width: 2px; opacity: 1;"/></g><g class="points"/><g class="text"/></g><g class="trace scatter tracec8dadd" style="stroke-miterlimit: 2; opacity: 1;"><g class="fills"/><g class="errorbars"/><g class="lines"><path class="js-line" d="M0,147.94L1.26,110.34L2.52,103.61L3.78,105.86L5.05,93.81L6.31,83.79L7.57,80.49L8.83,83.58L10.09,83.88L11.35,90.2L12.61,89.73L13.87,91.09L15.14,94.12L17.66,86.75L18.92,86.51L23.96,97.32L25.23,97.38L26.49,97.2L27.75,98.66L29.01,100.69L30.27,99.79L31.53,101.44L32.79,104.62L34.06,101.36L35.32,101.39L36.58,111.86L37.84,106.13L39.1,113.17L40.36,105.84L41.62,96.76L42.88,98.59L44.15,100.53L45.41,82.22L46.67,70.19L47.93,73.49L49.19,123.71L50.45,71.38L51.71,68.43L52.97,75.14L54.24,76.83L55.5,87.67L56.76,99.72L58.02,91.61L59.28,80.49L60.54,82.57L61.8,82.38L63.07,84.11L64.33,83.27L65.59,86L66.85,111.64L68.11,117.48L69.37,120.43L70.63,140.57L71.89,169.52L73.16,165.17L74.42,158.5L75.68,144.83L78.2,108.45L79.46,100.72L80.72,103.67L81.98,103.43L84.51,106.17L85.77,107.67L87.03,108.85L88.29,112.91L90.81,117.76L92.08,123.57L93.34,144.31L94.6,151.48L95.86,183.54L97.12,188.05L98.38,180.1L99.64,182.24L102.17,149.71L103.43,146.89L104.69,147.18L105.95,146.23L107.21,146.47L108.47,145.75L110.99,145.42L112.26,145.95L113.52,145.95L114.78,150.98L117.3,146.35L118.56,151.17L119.82,146.85L121.09,147.07L122.35,151.25L123.61,159.66L124.87,165.82L126.13,178.83L127.39,187.81L128.65,202.43L129.91,204.07L131.18,203.17L133.7,201.38L134.96,197.44L136.22,194.45L137.48,197L138.74,193.66L140.01,185.49L142.53,173.04L143.79,169.36L146.31,166.51L147.57,166.19L148.83,166.71L150.1,170.16L151.36,169.86L152.62,168.74L155.14,170.47L156.4,168.83L157.66,168.95L158.92,170.76L163.97,173.22L165.23,174.37L170.28,180.38L171.54,182L174.06,184.58L175.32,187.98L180.37,203.9L181.63,204.5L182.89,204.03L184.15,202.07L186.67,195.91L187.93,197.64L189.2,202.26L190.46,202.12L192.98,194.49L194.24,194.88L195.5,197.31L196.76,197.32L200.55,193.18L201.81,192.95L206.85,193.42L208.12,194.19L214.42,195.59L215.68,195.11L218.21,195.49L219.47,195.96L223.25,197.21L224.51,197.39L227.04,197.97L228.3,198.12L233.34,200.08L234.6,200.04L237.13,201.29L238.39,201.22L239.65,201.28L240.91,202.19L244.69,202.69L245.95,203.22L247.22,202.99L248.48,203.72L251,204.95" style="vector-effect: non-scaling-stroke; fill: none; stroke: rgb(44, 160, 44); stroke-opacity: 1; stroke-width: 2px; opacity: 1;"/></g><g class="points"/><g class="text"/></g><g class="trace scatter tracec1a764" style="stroke-miterlimit: 2; opacity: 1;"><g class="fills"/><g class="errorbars"/><g class="lines"><path class="js-line" d="M0,147.74L1.26,110.43L2.52,103.24L3.78,105.85L5.05,93.82L6.31,84.08L7.57,81.17L8.83,84.37L10.09,84.7L11.35,91.33L12.61,91.16L13.87,92.39L15.14,94.96L17.66,86.76L18.92,86.57L20.18,89.19L21.44,93.84L23.96,101.18L25.23,102.2L26.49,102.23L27.75,104.4L29.01,106.5L30.27,105.77L32.79,109.83L34.06,107.21L35.32,107.22L36.58,116.25L37.84,110.64L39.1,117.12L42.88,97.8L44.15,96.26L46.67,59.74L47.93,62.53L49.19,116.3L50.45,59.52L51.71,56.54L52.97,63.68L54.24,65.62L55.5,77.36L56.76,90.46L58.02,81.61L59.28,69.7L60.54,71.9L61.8,71.63L63.07,73.47L64.33,72.61L65.59,75.73L66.85,102.83L68.11,109.46L69.37,113.05L70.63,128.6L71.89,166.51L73.16,161.69L74.42,154.64L75.68,136.16L78.2,100.14L79.46,92L80.72,95.01L81.98,94.59L84.51,97.38L85.77,98.93L87.03,100.06L88.29,104.19L90.81,109.79L92.08,116.41L94.6,147.6L95.86,181.79L97.12,186.65L98.38,178.01L99.64,180.61L100.9,164.22L102.17,148.18L103.43,149.34L104.69,149.66L105.95,147.23L107.21,148.68L108.47,145.12L110.99,137.77L112.26,138.92L114.78,148.02L116.04,147.92L118.56,147.81L119.82,149.32L121.09,149.4L122.35,148.02L127.39,186.94L128.65,202.33L129.91,204.07L131.18,203.2L133.7,201.46L134.96,197.71L136.22,194.87L137.48,197.27L138.74,194.05L140.01,186.11L142.53,173.91L143.79,170.23L146.31,167.18L147.57,166.76L148.83,167.14L150.1,170.46L152.62,168.89L153.88,170.2L155.14,170.5L156.4,168.81L157.66,168.87L158.92,170.7L163.97,173.11L165.23,174.24L170.28,180.36L171.54,182.09L174.06,184.76L175.32,188.12L180.37,203.86L181.63,204.54L182.89,204.07L184.15,202.28L186.67,196.59L187.93,198.19L189.2,202.48L190.46,202.3L192.98,195.23L194.24,195.58L195.5,197.78L196.76,197.8L200.55,193.88L201.81,193.66L206.85,194.02L208.12,194.74L214.42,196.02L215.68,195.55L218.21,195.94L219.47,196.38L223.25,197.56L224.51,197.73L227.04,198.29L228.3,198.45L233.34,200.32L234.6,200.26L237.13,201.47L238.39,201.43L239.65,201.48L240.91,202.34L244.69,202.81L245.95,203.34L247.22,203.09L248.48,203.77L251,204.96" style="vector-effect: non-scaling-stroke; fill: none; stroke: rgb(214, 39, 40); stroke-opacity: 1; stroke-width: 2px; opacity: 1;"/></g><g class="points"/><g class="text"/></g><g class="trace scatter tracebf9294" style="stroke-miterlimit: 2; opacity: 1;"><g class="fills"/><g class="errorbars"/><g class="lines"><path class="js-line" d="M0,147.36L1.26,119.16L2.52,115.03L3.78,118.96L5.05,110.35L6.31,103.91L7.57,103.38L11.35,116.89L12.61,118.6L13.87,121.38L15.14,128.96L16.4,118.17L17.66,116.32L18.92,117.07L20.18,120.76L21.44,141.51L22.7,131.76L25.23,137.95L26.49,140.69L29.01,149.97L30.27,151.27L31.53,153.7L32.79,154.44L35.32,155.68L36.58,159.4L37.84,153.42L39.1,159.54L40.36,153.32L41.62,132.08L44.15,99.42L45.41,62.17L46.67,33.58L47.93,30.57L49.19,91.87L50.45,23.07L51.71,18.29L52.97,27.65L54.24,29.97L55.5,44.68L56.76,61.37L58.02,50.33L59.28,35.15L60.54,37.78L61.8,37.46L63.07,39.88L64.33,38.85L65.59,43.08L66.85,77.87L68.11,85.36L69.37,89.19L70.63,105.95L71.89,159.22L73.16,154.28L74.42,147.24L75.68,126.81L78.2,86.11L79.46,76.08L80.72,78.62L81.98,77.08L83.25,78.15L84.51,77.95L87.03,79.57L88.29,84.08L90.81,90.12L92.08,96.82L93.34,115.02L94.6,148.5L95.86,178.6L97.12,184.92L98.38,176.47L99.64,180.59L102.17,148.33L103.43,144.64L104.69,145.44L105.95,143.79L107.21,144.63L108.47,142.35L109.73,142.63L110.99,149.34L112.26,148.79L113.52,141.5L114.78,150.26L116.04,148.52L117.3,144.48L118.56,150.02L119.82,144.75L121.09,145.73L124.87,169.28L126.13,182.28L128.65,202.94L129.91,204.42L133.7,203.39L134.96,201.97L136.22,200.93L137.48,201.7L138.74,200.33L140.01,196.72L143.79,188.25L145.05,186.83L147.57,185.04L148.83,184.73L150.1,186.16L151.36,185.57L152.62,184.55L153.88,184.89L155.14,184.79L156.4,183.54L157.66,183.31L158.92,184.19L163.97,185.6L165.23,186.51L174.06,194.06L175.32,195.96L180.37,204.39L181.63,205L184.15,204.45L185.41,203.52L186.67,202.89L187.93,203.3L189.2,204.44L190.46,204.37L192.98,202.14L194.24,202.18L196.76,202.83L198.03,202.34L200.55,201.44L201.81,201.25L216.94,201.44L218.21,201.6L229.56,203.23L230.82,203.26L235.86,204.02L237.13,204.14L251,205.18" style="vector-effect: non-scaling-stroke; fill: none; stroke: rgb(148, 103, 189); stroke-opacity: 1; stroke-width: 2px; opacity: 1;"/></g><g class="points"/><g class="text"/></g><g class="trace scatter tracebe43b7" style="stroke-miterlimit: 2; opacity: 1;"><g class="fills"/><g class="errorbars"/><g class="lines"><path class="js-line" d="M0,149.45L1.26,118.13L2.52,113.68L3.78,117.55L5.05,108.44L6.31,101.96L7.57,101.34L10.09,107.79L11.35,114.91L13.87,118.23L15.14,120.15L16.4,114.53L17.66,112.52L18.92,113.08L20.18,116.44L21.44,122.63L22.7,135.58L23.96,148.97L25.23,147.85L27.75,143.34L29.01,144.43L30.27,145.27L31.53,147.89L32.79,150.52L34.06,151.22L35.32,152.22L36.58,155.39L37.84,146.28L39.1,155.74L40.36,146.13L41.62,127.85L44.15,102.63L45.41,75.18L46.67,55.94L47.93,57.39L49.19,110.15L50.45,53.9L51.71,50.66L52.97,58.63L54.24,60.8L55.5,73.2L56.76,86.81L58.02,77.99L59.28,65.7L60.54,68.14L61.8,68.04L63.07,69.99L64.33,69.24L65.59,72.58L66.85,100.89L68.11,106.85L69.37,109.82L70.63,129L71.89,166.8L73.16,162.45L74.42,156.13L75.68,144.67L78.2,103.8L79.46,95.44L80.72,97.95L81.98,97.08L84.51,98.76L85.77,99.75L87.03,100.72L88.29,104.58L90.81,109.48L92.08,114.75L93.34,139.2L94.6,148.45L95.86,182.62L97.12,187.65L98.38,180.06L99.64,183.08L102.17,153.11L103.43,149.31L104.69,150L105.95,147.62L107.21,148.4L108.47,146.02L110.99,142.98L112.26,143.18L113.52,145.31L114.78,154.14L116.04,152.29L117.3,147.98L118.56,153.84L119.82,148.62L121.09,149.34L122.35,155.19L127.39,190.75L128.65,202.93L129.91,204.39L131.18,204.02L133.7,203.17L134.96,201.49L136.22,200.15L137.48,201.11L138.74,199.49L140.01,195.32L143.79,185.68L145.05,184.14L147.57,182.32L148.83,182.12L150.1,183.82L151.36,183.18L152.62,182.2L153.88,182.66L155.14,182.55L156.4,181.14L157.66,181.01L158.92,182.07L163.97,183.69L165.23,184.61L174.06,192.54L175.32,194.67L180.37,204.32L181.63,204.94L184.15,204.13L185.41,202.83L186.67,201.88L187.93,202.47L189.2,204.1L190.46,204.05L192.98,201.15L194.24,201.26L196.76,202.2L198.03,201.55L200.55,200.5L201.81,200.33L218.21,200.89L219.47,201.15L227.04,202.42L228.3,202.55L242.17,204.25L243.43,204.22L251,205.16" style="vector-effect: non-scaling-stroke; fill: none; stroke: rgb(140, 86, 75); stroke-opacity: 1; stroke-width: 2px; opacity: 1;"/></g><g class="points"/><g class="text"/></g><g class="trace scatter tracebadfc0" style="stroke-miterlimit: 2; opacity: 1;"><g class="fills"/><g class="errorbars"/><g class="lines"><path class="js-line" d="M0,151.36L1.26,113.88L2.52,108.61L3.78,110.26L5.05,98.79L6.31,90.22L7.57,87.65L8.83,91.6L10.09,92.26L11.35,98.33L12.61,99.05L13.87,100.45L15.14,103.43L16.4,98.84L17.66,97.13L18.92,97.69L20.18,100.38L22.7,108.75L23.96,112L26.49,113.23L27.75,115.28L29.01,117.62L30.27,117.87L32.79,125.96L34.06,125.39L35.32,127.76L36.58,146.12L37.84,120.5L39.1,147.58L41.62,103.86L42.88,101.06L44.15,100.12L45.41,81.38L46.67,67.53L47.93,69.92L49.19,118.12L50.45,65.56L51.71,61.78L52.97,68.65L54.24,69.75L55.5,80.7L56.76,93.24L58.02,84.23L59.28,71.12L60.54,72.81L61.8,72.04L63.07,73.88L64.33,72.1L65.59,74.55L66.85,102.65L68.11,108.06L69.37,110.47L70.63,123.64L71.89,166.9L73.16,162L75.68,149.45L76.94,112.8L79.46,89.48L80.72,92.33L81.98,91.9L83.25,93.74L85.77,95.72L87.03,97.08L89.55,103.54L90.81,105.89L92.08,111.21L93.34,125.62L94.6,145.85L95.86,181.85L97.12,186.89L98.38,178.16L99.64,180.82L100.9,164.38L102.17,145.97L103.43,141.29L104.69,142.87L105.95,140.38L108.47,141.88L109.73,155.1L110.99,153.22L112.26,154.44L114.78,146.84L116.04,144.5L117.3,140.64L118.56,146.43L119.82,141.22L121.09,141.48L122.35,146.78L123.61,156.09L124.87,163.26L126.13,177.43L128.65,202.54L129.91,204.08L133.7,202.08L134.96,199L136.22,196.71L137.48,198.56L138.74,195.97L140.01,189.31L142.53,178.55L143.79,175.12L146.31,172.27L147.57,171.71L148.83,172.03L150.1,174.87L152.62,173.36L153.88,174.24L155.14,174.27L156.4,172.57L157.66,172.45L158.92,174L161.45,174.61L162.71,175.88L165.23,178.07L166.49,179.44L174.06,187.87L175.32,190.78L180.37,204.13L181.63,204.74L182.89,204.43L184.15,203.1L186.67,198.66L187.93,199.79L189.2,203.1L190.46,202.95L192.98,197.85L194.24,198.28L195.5,200.05L196.76,200.17L200.55,197.82L201.81,197.63L211.9,198.32L213.16,198.47L219.47,199.13L220.73,199.78L229.56,201.53L230.82,201.52L233.34,202.34L234.6,202.16L237.13,202.97L238.39,202.97L243.43,203.47L244.69,203.93L251,205.08" style="vector-effect: non-scaling-stroke; fill: none; stroke: rgb(227, 119, 194); stroke-opacity: 1; stroke-width: 2px; opacity: 1;"/></g><g class="points"/><g class="text"/></g><g class="trace scatter traced0cbb3" style="stroke-miterlimit: 2; opacity: 1;"><g class="fills"/><g class="errorbars"/><g class="lines"><path class="js-line" d="M0,150.9L1.26,113.43L2.52,107.27L3.78,110.72L5.05,100.02L6.31,91.62L7.57,89.33L8.83,93.33L10.09,93.94L11.35,100.53L12.61,101.03L15.14,104.7L16.4,99.87L17.66,98.92L18.92,99.62L20.18,102.51L21.44,107.46L23.96,113.91L25.23,115.1L26.49,115.99L27.75,118.21L29.01,120.74L30.27,121.55L32.79,141.14L34.06,139.99L36.58,142.7L37.84,124.04L39.1,143.63L40.36,123.94L41.62,105.5L42.88,101.18L44.15,99.84L45.41,80.23L46.67,66.64L47.93,69.24L49.19,117.37L50.45,64.48L51.71,60.44L52.97,66.62L54.24,67.6L55.5,78.33L56.76,90.32L58.02,80.89L59.28,67.82L60.54,69.18L61.8,68.22L63.07,69.38L64.33,67.58L65.59,70.29L66.85,98.3L68.11,103.82L69.37,106.12L70.63,119.43L71.89,164.39L73.16,159.31L74.42,151.38L75.68,132.02L78.2,92.18L79.46,82.93L80.72,85.89L81.98,85.14L83.25,87.08L84.51,87.59L87.03,90.13L88.29,94.23L90.81,99.28L92.08,104.57L94.6,143.77L95.86,179.74L97.12,185.01L98.38,175.69L99.64,178.76L100.9,161.26L102.17,143.75L103.43,145.54L104.69,144.5L105.95,147.57L107.21,146.96L108.47,148.63L109.73,146.64L110.99,137.41L112.26,139.31L113.52,148.52L114.78,143.82L116.04,143.66L117.3,147.85L118.56,143.93L119.82,147.32L121.09,146.02L122.35,143.84L123.61,153.24L124.87,160.69L126.13,175.73L128.65,202.22L129.91,204.1L133.7,201.85L134.96,198.59L136.22,196.08L137.48,198.21L138.74,195.38L140.01,188.38L142.53,177.29L143.79,173.82L146.31,170.9L147.57,170.48L148.83,170.8L150.1,173.78L152.62,172.3L153.88,173.31L155.14,173.31L156.4,171.54L157.66,171.48L158.92,173.08L162.71,175.08L163.97,175.84L174.06,187.28L175.32,190.25L180.37,204.07L181.63,204.7L182.89,204.39L184.15,203.02L186.67,198.58L187.93,199.76L189.2,203.08L190.46,202.96L192.98,197.61L194.24,198.04L195.5,199.83L196.76,199.94L200.55,197.34L201.81,197.2L218.21,198.29L219.47,198.84L223.25,200.15L224.51,200.32L229.56,201.27L230.82,201.3L233.34,202.12L234.6,202.06L237.13,202.84L238.39,202.8L243.43,203.36L244.69,203.78L251,205.07" style="vector-effect: non-scaling-stroke; fill: none; stroke: rgb(127, 127, 127); stroke-opacity: 1; stroke-width: 2px; opacity: 1;"/></g><g class="points"/><g class="text"/></g><g class="trace scatter tracea60f69" style="stroke-miterlimit: 2; opacity: 1;"><g class="fills"/><g class="errorbars"/><g class="lines"><path class="js-line" d="M0,150.14L1.26,116.49L2.52,112.56L3.78,116.13L5.05,106.07L6.31,99.33L7.57,98.17L10.09,103.95L11.35,110.62L13.87,113.2L15.14,116.24L17.66,109.17L18.92,109.74L21.44,118.7L22.7,123.39L25.23,139L26.49,144.01L29.01,150.67L30.27,149.22L31.53,147.35L32.79,142.53L34.06,143.5L35.32,143.02L36.58,148.59L37.84,146.23L39.1,151.56L40.36,144.46L41.62,136.94L42.88,119.58L44.15,109.39L45.41,82.1L46.67,60.72L47.93,59.77L49.19,111.4L50.45,55.82L51.71,52.55L52.97,60.57L54.24,62.77L55.5,75.69L56.76,88.48L58.02,80.29L59.28,68.06L60.54,70.6L61.8,70.18L63.07,73.15L64.33,71.69L65.59,75.39L66.85,103.21L68.11,108.95L69.37,112.13L70.63,127.32L71.89,167.4L73.16,163.2L75.68,151.5L76.94,119.37L79.46,97.97L80.72,100.56L81.98,99.94L83.25,101.53L85.77,103.1L87.03,104.08L89.55,110.62L90.81,113.1L92.08,118.22L93.34,150.89L94.6,150.29L95.86,183.24L97.12,188.18L98.38,180.8L99.64,183.62L100.9,169.9L102.17,154.33L103.43,150.85L104.69,151.54L105.95,149.05L107.21,149.84L108.47,147.89L110.99,143.69L112.26,144.1L113.52,147.27L114.78,156L116.04,154.59L117.3,150.63L118.56,155.74L119.82,150.93L121.09,151.55L122.35,157.19L127.39,191.18L128.65,202.99L129.91,204.21L131.18,203.92L133.7,202.87L134.96,201.04L136.22,199.44L137.48,200.62L138.74,198.73L140.01,194.14L142.53,186.7L143.79,184.12L146.31,181.39L147.57,180.88L148.83,180.74L150.1,182.6L152.62,181.04L153.88,181.73L155.14,181.7L156.4,180.41L157.66,180.33L158.92,181.49L163.97,183.01L165.23,183.96L170.28,188.63L171.54,189.94L174.06,192.03L175.32,194.32L180.37,204.29L181.63,204.84L182.89,204.75L184.15,203.87L186.67,201.21L187.93,201.86L189.2,203.97L190.46,203.89L192.98,200.31L194.24,200.42L195.5,201.41L196.76,201.42L200.55,199.23L201.81,199.06L208.12,199.36L209.38,199.56L219.47,200.25L220.73,200.5L227.04,201.52L228.3,201.66L251,205.13" style="vector-effect: non-scaling-stroke; fill: none; stroke: rgb(188, 189, 34); stroke-opacity: 1; stroke-width: 2px; opacity: 1;"/></g><g class="points"/><g class="text"/></g><g class="trace scatter tracef82288" style="stroke-miterlimit: 2; opacity: 1;"><g class="fills"/><g class="errorbars"/><g class="lines"><path class="js-line" d="M0,148.05L1.26,109.53L2.52,102.67L3.78,105.38L5.05,93.35L6.31,83.47L7.57,80.15L8.83,83.3L10.09,83.48L11.35,90.05L12.61,89.69L13.87,91.28L15.14,94.79L17.66,88.36L18.92,88.45L23.96,98.43L25.23,98.47L26.49,98.12L27.75,99.42L29.01,101.39L30.27,100.45L31.53,102.39L32.79,105.95L34.06,102.54L35.32,102.89L36.58,113.06L37.84,107.17L39.1,114.28L40.36,106.93L41.62,97.7L42.88,100.66L44.15,104.1L45.41,88.53L46.67,78.16L47.93,81.72L49.19,132.9L50.45,79.53L51.71,76.83L52.97,82.95L54.24,84.47L55.5,94.44L56.76,105.49L58.02,97.95L59.28,87.25L60.54,89.01L61.8,88.77L63.07,90.31L64.33,89.35L65.59,91.95L66.85,116.99L68.11,122.97L69.37,126.65L70.63,143.31L71.89,171.18L73.16,167.04L74.42,160.59L75.68,147.22L79.46,104.86L80.72,107.59L81.98,107.27L83.25,109.06L85.77,111.14L87.03,112.25L89.55,118.88L90.81,121.84L92.08,129.11L93.34,147.94L94.6,153.4L95.86,184.41L97.12,188.69L98.38,181L99.64,183.07L100.9,168.13L102.17,151.33L103.43,147.1L104.69,147.5L105.95,145L107.21,145.79L108.47,143.74L109.73,144.83L110.99,147.55L112.26,147.42L113.52,143.35L114.78,151.87L116.04,149.64L117.3,144.69L118.56,151.97L119.82,146.36L121.09,146.48L123.61,160.07L124.87,166.19L128.65,202.47L129.91,204.07L133.7,201.42L134.96,197.49L136.22,194.58L137.48,197.08L138.74,193.76L140.01,185.65L142.53,173.12L143.79,169.42L146.31,166.52L147.57,166.27L148.83,166.75L150.1,170.21L151.36,169.92L152.62,168.78L155.14,170.38L156.4,168.65L157.66,168.73L158.92,170.54L163.97,173.12L165.23,174.31L170.28,180.43L171.54,182L174.06,184.51L175.32,187.95L180.37,203.89L181.63,204.5L182.89,203.99L184.15,201.97L186.67,195.57L187.93,197.39L189.2,202.17L190.46,202.03L192.98,194.49L194.24,194.96L195.5,197.47L196.76,197.57L200.55,193.76L201.81,193.53L208.12,194.61L209.38,194.94L218.21,195.77L219.47,196.28L223.25,197.71L224.51,197.88L229.56,199.13L230.82,199.17L233.34,200.4L234.6,200.33L237.13,201.5L238.39,201.43L239.65,201.48L240.91,202.36L244.69,202.86L245.95,203.37L247.22,203.2L248.48,203.87L251,204.97" style="vector-effect: non-scaling-stroke; fill: none; stroke: rgb(23, 190, 207); stroke-opacity: 1; stroke-width: 2px; opacity: 1;"/></g><g class="points"/><g class="text"/></g><g class="trace scatter trace72a7a9" style="stroke-miterlimit: 2; opacity: 1;"><g class="fills"/><g class="errorbars"/><g class="lines"><path class="js-line" d="M0,149.29L1.26,109.76L2.52,103.21L3.78,105.35L5.05,93.28L6.31,83.49L7.57,80.17L8.83,83.37L10.09,83.43L11.35,89.86L12.61,89.28L13.87,90.76L15.14,93.92L17.66,87.05L18.92,86.82L23.96,96.81L25.23,96.73L26.49,96.28L27.75,97.62L29.01,99.77L30.27,98.72L31.53,100.43L32.79,103.54L34.06,100.25L35.32,100.28L36.58,110.21L37.84,104.54L39.1,111.57L40.36,104.24L41.62,95.2L42.88,97.73L44.15,100.89L45.41,84.02L46.67,73.04L47.93,76.64L49.19,125.35L50.45,74.53L51.71,71.56L52.97,77.97L54.24,79.72L55.5,90.35L56.76,102.02L58.02,94.13L59.28,82.68L60.54,84.73L61.8,84.28L63.07,86.07L64.33,84.96L65.59,87.64L66.85,112.85L68.11,118.1L69.37,120.72L70.63,140.9L71.89,169.89L73.16,165.57L75.68,148.66L76.94,123.06L79.46,101.32L80.72,104.1L81.98,103.9L83.25,105.7L85.77,107.92L87.03,109.04L89.55,115.07L90.81,117.12L92.08,122.36L93.34,149.93L94.6,151.32L95.86,183.54L97.12,188.06L98.38,180.05L99.64,182.08L100.9,166.57L102.17,149.05L103.43,145.04L104.69,145.36L105.95,143.35L107.21,144.01L108.47,143.16L110.99,150.06L112.26,150.12L113.52,143.62L114.78,149.94L116.04,147.68L117.3,143.39L118.56,150.08L119.82,144.54L121.09,144.62L122.35,150.01L126.13,178.08L127.39,187.28L128.65,202.39L129.91,204.02L133.7,201.25L134.96,197.12L136.22,194.04L137.48,196.66L138.74,193.21L140.01,184.7L142.53,171.66L143.79,167.84L146.31,164.83L147.57,164.56L148.83,165.09L150.1,168.74L151.36,168.41L152.62,167.26L155.14,168.99L156.4,167.28L157.66,167.37L158.92,169.25L163.97,171.92L165.23,173.13L170.28,179.4L171.54,181.08L174.06,183.72L175.32,187.23L180.37,203.84L181.63,204.45L182.89,203.95L184.15,201.85L186.67,195.28L187.93,197.09L189.2,202.06L190.46,201.92L192.98,193.99L194.24,194.42L195.5,197.03L196.76,197.11L200.55,192.95L201.81,192.72L206.85,193.19L208.12,193.96L214.42,195.28L215.68,194.79L218.21,195.23L219.47,195.74L223.25,197.15L224.51,197.34L227.04,197.94L228.3,198.11L233.34,200.04L234.6,199.96L237.13,201.23L238.39,201.15L239.65,201.23L240.91,202.11L244.69,202.66L245.95,203.21L247.22,203.02L248.48,203.73L251,204.95" style="vector-effect: non-scaling-stroke; fill: none; stroke: rgb(31, 119, 180); stroke-opacity: 1; stroke-width: 2px; opacity: 1;"/></g><g class="points"/><g class="text"/></g><g class="trace scatter tracea3df06" style="stroke-miterlimit: 2; opacity: 1;"><g class="fills"/><g class="errorbars"/><g class="lines"><path class="js-line" d="M0,147.19L1.26,109.27L2.52,102.64L3.78,105.14L5.05,93.12L6.31,83.05L7.57,79.95L8.83,83.32L10.09,83.45L11.35,90.06L12.61,89.54L13.87,91.08L15.14,94.42L16.4,89.56L17.66,87.78L18.92,87.89L20.18,90.47L22.7,96.24L23.96,98.83L26.49,100.11L27.75,102.52L29.01,104.87L30.27,103.79L32.79,108.36L34.06,105.53L35.32,105.79L36.58,115.5L37.84,108.96L39.1,116.82L41.62,99.87L42.88,101.83L44.15,105.19L45.41,87.17L46.67,76.63L47.93,80.13L49.19,129.86L50.45,77.75L51.71,74.87L52.97,80.78L54.24,82.23L55.5,92.38L56.76,105.16L58.02,95.62L59.28,84.76L60.54,86.66L61.8,86.27L63.07,87.89L64.33,86.71L65.59,89.32L66.85,115.33L68.11,121.41L69.37,124.24L70.63,136.64L71.89,170.11L73.16,165.85L74.42,159.25L75.68,145.64L78.2,111.7L79.46,102.91L80.72,106.35L81.98,105.85L84.51,108.94L85.77,110.38L87.03,111.71L88.29,115.75L90.81,120.37L92.08,126.1L94.6,152.14L95.86,183.88L97.12,188.21L98.38,180.27L99.64,182.44L100.9,167.33L102.17,150.42L103.43,147.62L109.73,148.31L110.99,146.23L113.52,148.17L114.78,151.9L117.3,147.38L118.56,152.04L119.82,147.51L121.09,147.76L122.35,152.13L123.61,160.4L124.87,166.46L126.13,179.24L127.39,188.01L128.65,202.5L129.91,204.08L131.18,203.18L133.7,201.43L134.96,197.51L136.22,194.54L137.48,197.05L138.74,193.76L140.01,185.72L142.53,173.47L143.79,169.91L146.31,167.16L147.57,166.93L148.83,167.42L150.1,170.85L151.36,170.59L152.62,169.52L155.14,171.36L156.4,169.77L157.66,169.91L158.92,171.7L165.23,175.27L166.49,176.5L174.06,185.22L175.32,188.52L180.37,203.94L181.63,204.52L182.89,204.03L184.15,202.15L186.67,196.23L187.93,197.85L189.2,202.35L190.46,202.18L192.98,194.8L194.24,195.09L195.5,197.47L196.76,197.51L200.55,193.43L201.81,193.2L206.85,193.73L208.12,194.5L214.42,196.03L215.68,195.56L218.21,195.9L219.47,196.31L223.25,197.43L224.51,197.65L227.04,198.19L228.3,198.35L233.34,200.25L234.6,200.19L237.13,201.41L238.39,201.35L239.65,201.41L240.91,202.3L244.69,202.76L245.95,203.29L247.22,203.07L248.48,203.75L251,204.93" style="vector-effect: non-scaling-stroke; fill: none; stroke: rgb(255, 127, 14); stroke-opacity: 1; stroke-width: 2px; opacity: 1;"/></g><g class="points"/><g class="text"/></g><g class="trace scatter trace61e912" style="stroke-miterlimit: 2; opacity: 1;"><g class="fills"/><g class="errorbars"/><g class="lines"><path class="js-line" d="M0,142.08L1.26,119.65L2.52,116.1L3.78,119.07L5.05,109.93L6.31,103.64L7.57,103.28L10.09,109.38L11.35,116.43L12.61,117.61L13.87,119.83L15.14,122.74L16.4,118.89L17.66,117.95L18.92,118.76L20.18,121.81L21.44,130.66L22.7,148.44L23.96,152L26.49,144.34L27.75,142.09L30.27,144.21L31.53,146.69L32.79,149.86L34.06,150.43L35.32,151.58L36.58,155.81L37.84,147.71L39.1,155.79L40.36,147.66L41.62,148.75L42.88,138.17L44.15,120.31L46.67,75.54L47.93,73.59L49.19,119.32L50.45,67.03L51.71,63.46L52.97,70.04L54.24,71.43L55.5,82.44L56.76,94.89L58.02,86.18L59.28,74.68L60.54,76.82L61.8,76.34L63.07,77.96L64.33,77.19L65.59,80.37L66.85,106.83L68.11,112.73L69.37,115.46L70.63,134.4L71.89,169.03L73.16,165.19L74.42,159.83L75.68,140.67L79.46,105.52L80.72,107.34L81.98,106.28L83.25,107L85.77,107.58L87.03,108.03L92.08,120.85L93.34,155.53L94.6,152.14L95.86,184.05L97.12,189.02L98.38,182.43L99.64,185.53L100.9,173.69L102.17,160.14L103.43,157.01L104.69,157.84L105.95,155.95L107.21,156.69L108.47,154.53L110.99,150.27L112.26,150.37L113.52,153.24L114.78,161L116.04,159.37L117.3,155.53L118.56,160.77L119.82,156.31L121.09,157.02L122.35,162.09L128.65,203.16L129.91,204.4L133.7,203.38L134.96,202L136.22,200.86L137.48,201.62L138.74,200.29L140.01,196.87L143.79,189.21L145.05,188L147.57,186.69L148.83,186.66L150.1,188.13L151.36,187.65L152.62,186.9L153.88,187.25L155.14,187.23L156.4,186.12L157.66,186.05L158.92,186.83L163.97,188.11L165.23,188.91L172.8,194.2L174.06,195.13L180.37,204.44L181.63,204.98L184.15,204.29L185.41,203.19L186.67,202.39L187.93,202.92L189.2,204.29L190.46,204.26L192.98,201.76L194.24,201.82L196.76,202.65L198.03,202.12L200.55,201.23L201.81,201.09L218.21,201.66L219.47,201.92L233.34,203.66L234.6,203.62L240.91,204.36L242.17,204.38L248.48,204.88L249.74,205.09L251,205.18" style="vector-effect: non-scaling-stroke; fill: none; stroke: rgb(44, 160, 44); stroke-opacity: 1; stroke-width: 2px; opacity: 1;"/></g><g class="points"/><g class="text"/></g><g class="trace scatter trace3fdeaf" style="stroke-miterlimit: 2; opacity: 1;"><g class="fills"/><g class="errorbars"/><g class="lines"><path class="js-line" d="M0,144.75L1.26,119.54L2.52,115.64L3.78,120.14L5.05,112.69L6.31,106.76L7.57,107.14L13.87,131.14L15.14,145.58L16.4,126.52L17.66,123.86L18.92,125.75L20.18,140.06L21.44,147.88L22.7,142.76L32.79,164.76L34.06,165.87L35.32,167.14L36.58,170.01L37.84,161.51L39.1,170.26L40.36,161.42L41.62,145.87L42.88,132.26L44.15,105.23L46.67,30.97L47.93,24.98L49.19,86.77L50.45,15.33L51.71,10.8L52.97,20.92L54.24,23.65L55.5,39.7L56.76,56.95L58.02,46.15L59.28,30.46L60.54,33.41L61.8,33.44L63.07,36.34L64.33,35.67L65.59,40.37L66.85,76.15L68.11,84.13L69.37,88.09L70.63,104.89L71.89,159.1L73.16,154.11L74.42,147.54L75.68,124.41L78.2,85.42L79.46,75.5L80.72,78.2L81.98,77.09L83.25,78.43L84.51,78.61L87.03,80.77L88.29,85.38L90.81,91.65L92.08,98.2L93.34,115.91L94.6,145.58L95.86,179.23L97.12,185.42L98.38,177.13L99.64,181.16L102.17,149.86L103.43,147.13L104.69,147.9L105.95,146.74L107.21,147.43L108.47,146.27L110.99,145.34L112.26,145.56L113.52,145.97L114.78,151.85L116.04,150.25L117.3,147.12L118.56,151.36L119.82,147.22L121.09,147.95L122.35,153.88L128.65,203.06L129.91,204.5L134.96,202.95L136.22,202.29L137.48,202.75L138.74,201.81L143.79,192.74L145.05,191.49L148.83,189.37L150.1,190.45L153.88,189.12L155.14,188.97L157.66,187.68L158.92,188.37L163.97,189.59L165.23,190.42L174.06,196.73L175.32,198.21L180.37,204.53L181.63,205.12L185.41,204.44L186.67,204.16L190.46,204.79L191.72,204.23L194.24,203.54L195.5,204.03L208.12,202.92L209.38,202.95L220.73,203.31L221.99,203.5L244.69,205.01L245.95,205.02L251,205.2" style="vector-effect: non-scaling-stroke; fill: none; stroke: rgb(214, 39, 40); stroke-opacity: 1; stroke-width: 2px; opacity: 1;"/></g><g class="points"/><g class="text"/></g><g class="trace scatter tracef8231e" style="stroke-miterlimit: 2; opacity: 1;"><g class="fills"/><g class="errorbars"/><g class="lines"><path class="js-line" d="M0,148.72L1.26,117.72L2.52,113.74L3.78,117.28L5.05,108.78L6.31,102.11L7.57,101.63L10.09,108.5L11.35,115.74L12.61,117.37L13.87,120.49L15.14,127.49L16.4,118.59L17.66,117.2L18.92,119.24L22.7,139.56L23.96,142.32L26.49,144.67L27.75,147.06L31.53,150.55L32.79,153.42L35.32,155.04L36.58,158.94L37.84,151.39L39.1,159.35L41.62,141.07L42.88,127.51L44.15,111.62L45.41,81.44L46.67,58.26L47.93,56.3L49.19,108.48L50.45,50.07L51.71,46.23L52.97,54.19L54.24,56.2L55.5,69.07L56.76,82.85L58.02,73.74L59.28,61.15L60.54,63.62L61.8,63.53L63.07,65.73L64.33,64.89L65.59,68.41L66.85,97.46L68.11,103.69L69.37,106.54L70.63,122.59L71.89,165.19L73.16,160.72L74.42,154.27L75.68,140.87L78.2,101.76L79.46,93.31L80.72,96.03L81.98,95.14L84.51,97.02L85.77,98.01L87.03,98.99L88.29,102.91L90.81,108.09L92.08,113.54L94.6,147.74L95.86,182.03L97.12,187.12L98.38,179.55L99.64,182.8L100.9,169.1L102.17,153.79L103.43,150.21L104.69,151.12L105.95,149.16L107.21,150.13L108.47,147.87L109.73,146.18L110.99,145.89L112.26,146.03L113.52,147.09L114.78,155.45L116.04,153.78L117.3,149.73L118.56,155.14L119.82,150.32L121.09,150.98L123.61,165.15L124.87,171.6L128.65,203.07L129.91,204.49L133.7,203.5L134.96,202.11L136.22,201L137.48,201.78L138.74,200.46L140.01,196.92L143.79,188.91L145.05,187.62L147.57,185.98L148.83,185.71L150.1,187.15L151.36,186.58L152.62,185.62L153.88,186.02L155.14,185.94L156.4,184.7L157.66,184.53L158.92,185.41L163.97,186.83L165.23,187.68L174.06,194.66L175.32,196.47L180.37,204.47L181.63,204.97L184.15,204.42L185.41,203.51L186.67,202.86L187.93,203.26L189.2,204.41L190.46,204.34L192.98,202.21L194.24,202.22L196.76,202.94L198.03,202.46L200.55,201.61L201.81,201.45L211.9,201.72L213.16,201.76L224.51,202.83L225.77,203.08L234.6,203.84L235.86,204.08L251,205.15" style="vector-effect: non-scaling-stroke; fill: none; stroke: rgb(148, 103, 189); stroke-opacity: 1; stroke-width: 2px; opacity: 1;"/></g><g class="points"/><g class="text"/></g><g class="trace scatter trace999720" style="stroke-miterlimit: 2; opacity: 1;"><g class="fills"/><g class="errorbars"/><g class="lines"><path class="js-line" d="M0,123.9L1.26,91.5L2.52,81.3L3.78,81.88L5.05,65.38L6.31,49.35L7.57,43.5L8.83,45.97L10.09,44.48L11.35,51.5L12.61,49.74L13.87,50.79L15.14,55.74L16.4,49.82L17.66,47.95L18.92,48.42L20.18,51.63L22.7,57.69L23.96,60.18L25.23,60.48L26.49,59.84L29.01,64.82L30.27,64.11L31.53,66.52L32.79,70.99L34.06,67.13L35.32,68.02L36.58,81.81L37.84,79.08L39.1,83.44L40.36,78.28L41.62,72.99L42.88,80.88L44.15,89.32L45.41,75.01L46.67,66.02L47.93,70.11L49.19,122.92L50.45,71.92L51.71,68.1L52.97,76.75L54.24,79.24L55.5,90.42L56.76,102.35L58.02,95.22L59.28,84.93L60.54,87.94L61.8,88.19L63.07,90.55L64.33,90.02L65.59,93.19L66.85,118.36L68.11,126.67L69.37,131.03L70.63,141.77L71.89,171.82L73.16,167.86L74.42,161.91L75.68,145.87L76.94,136.92L78.2,118.54L79.46,110.78L80.72,114.31L81.98,114.61L83.25,117.54L84.51,118.65L85.77,121.17L88.29,129.2L89.55,133.21L90.81,135.11L92.08,140.14L93.34,145.79L94.6,158.35L95.86,186.19L97.12,190.15L98.38,183.08L99.64,184.88L102.17,156.94L103.43,154.81L104.69,154.88L105.95,153.73L107.21,154.34L108.47,152.52L109.73,150.78L110.99,147.71L112.26,149.17L113.52,152.49L114.78,158.32L116.04,156.5L117.3,154.15L118.56,159.38L119.82,155.52L121.09,155.69L122.35,159.56L123.61,166.59L124.87,171.71L126.13,182.6L127.39,190.24L128.65,202.79L129.91,204.1L131.18,203.25L133.7,201.55L134.96,197.87L136.22,195.06L137.48,197.45L138.74,194.39L140.01,187L142.53,175.89L143.79,172.82L146.31,170.74L147.57,170.75L148.83,171.31L150.1,174.52L152.62,173.65L153.88,174.98L155.14,175.51L156.4,174.19L157.66,174.41L158.92,176.04L165.23,179.27L166.49,180.29L174.06,187.82L175.32,190.69L180.37,204.08L181.63,204.57L182.89,204.12L184.15,202.43L186.67,197.16L187.93,198.62L189.2,202.61L190.46,202.45L192.98,195.66L194.24,195.96L195.5,198.12L196.76,198.16L200.55,194.47L201.81,194.27L206.85,194.93L208.12,195.64L214.42,197.02L215.68,196.69L219.47,197.64L220.73,198.19L227.04,199.72L228.3,199.89L233.34,201.09L234.6,200.89L237.13,201.82L238.39,201.76L243.43,202.56L244.69,203.12L251,204.99" style="vector-effect: non-scaling-stroke; fill: none; stroke: rgb(140, 86, 75); stroke-opacity: 1; stroke-width: 2px; opacity: 1;"/></g><g class="points"/><g class="text"/></g></g></g><g class="overplot"/><path class="xlines-above crisp" d="M0,0" style="fill: none;"/><path class="ylines-above crisp" d="M0,0" style="fill: none;"/><g class="overlines-above"/><g class="xaxislayer-above"><g class="xtick"><text text-anchor="middle" x="0" y="289" transform="translate(60,0)" style="font-family: 'Open Sans', verdana, arial, sans-serif; font-size: 12px; fill: rgb(68, 68, 68); fill-opacity: 1; white-space: pre;">0</text></g><g class="xtick"><text text-anchor="middle" x="0" y="289" transform="translate(123.07,0)" style="font-family: 'Open Sans', verdana, arial, sans-serif; font-size: 12px; fill: rgb(68, 68, 68); fill-opacity: 1; white-space: pre;">50</text></g><g class="xtick"><text text-anchor="middle" x="0" y="289" transform="translate(186.13,0)" style="font-family: 'Open Sans', verdana, arial, sans-serif; font-size: 12px; fill: rgb(68, 68, 68); fill-opacity: 1; white-space: pre;">100</text></g><g class="xtick"><text text-anchor="middle" x="0" y="289" transform="translate(249.2,0)" style="font-family: 'Open Sans', verdana, arial, sans-serif; font-size: 12px; fill: rgb(68, 68, 68); fill-opacity: 1; white-space: pre;">150</text></g></g><g class="yaxislayer-above"><g class="ytick"><text text-anchor="end" x="59" y="4.199999999999999" transform="translate(0,266.65999999999997)" style="font-family: 'Open Sans', verdana, arial, sans-serif; font-size: 12px; fill: rgb(68, 68, 68); fill-opacity: 1; white-space: pre;">0</text></g><g class="ytick"><text text-anchor="end" x="59" y="4.199999999999999" transform="translate(0,215.6)" style="font-family: 'Open Sans', verdana, arial, sans-serif; font-size: 12px; fill: rgb(68, 68, 68); fill-opacity: 1; white-space: pre;">0.2</text></g><g class="ytick"><text text-anchor="end" x="59" y="4.199999999999999" transform="translate(0,164.54000000000002)" style="font-family: 'Open Sans', verdana, arial, sans-serif; font-size: 12px; fill: rgb(68, 68, 68); fill-opacity: 1; white-space: pre;">0.4</text></g><g class="ytick"><text text-anchor="end" x="59" y="4.199999999999999" transform="translate(0,113.47999999999999)" style="font-family: 'Open Sans', verdana, arial, sans-serif; font-size: 12px; fill: rgb(68, 68, 68); fill-opacity: 1; white-space: pre;">0.6</text></g><g class="ytick"><text text-anchor="end" x="59" y="4.199999999999999" transform="translate(0,62.42)" style="font-family: 'Open Sans', verdana, arial, sans-serif; font-size: 12px; fill: rgb(68, 68, 68); fill-opacity: 1; white-space: pre;">0.8</text></g></g><g class="overaxes-above"/></g></g><g class="polarlayer"/><g class="ternarylayer"/><g class="geolayer"/><g class="funnelarealayer"/><g class="pielayer"/><g class="treemaplayer"/><g class="sunburstlayer"/><g class="glimages"/><defs id="topdefs-7caef4"><g class="clips"/></defs><g class="layer-above"><g class="imagelayer"/><g class="shapelayer"/></g><g class="infolayer"><g class="g-gtitle"><text class="gtitle" x="185.5" y="30" text-anchor="middle" dy="0em" style="font-family: 'Open Sans', verdana, arial, sans-serif; font-size: 17px; fill: rgb(68, 68, 68); opacity: 1; font-weight: normal; white-space: pre;">Mean spectrum/class</text></g><g class="g-xtitle"/><g class="g-ytitle"/></g></svg>