<svg class="main-svg" xmlns="http://www.w3.org/2000/svg" xmlns:xlink="http://www.w3.org/1999/xlink" width="371" height="336" style="" viewBox="0 0 371 336"><rect x="0" y="0" width="371" height="336" style="fill: rgb(255, 255, 255); fill-opacity: 1;"/><defs id="defs-f785de"><g class="clips"><clipPath id="clipf785dexyplot" class="plotclip"><rect width="251" height="216"/></clipPath><clipPath class="axesclip" id="clipf785dex"><rect x="60" y="0" width="251" height="336"/></clipPath><clipPath class="axesclip" id="clipf785dey"><rect x="0" y="60" width="371" height="216"/></clipPath><clipPath class="axesclip" id="clipf785dexy"><rect x="60" y="60" width="251" height="216"/></clipPath></g><g class="gradients"/></defs><g class="bglayer"/><g class="layer-below"><g class="imagelayer"/><g class="shapelayer"/></g><g class="cartesianlayer"><g class="subplot xy"><g class="layer-subplot"><g class="shapelayer"/><g class="imagelayer"/></g><g class="gridlayer"><g class="x"><path class="xgrid crisp" transform="translate(183.04000000000002,0)" d="M0,60v216" style="stroke: rgb(238, 238, 238); stroke-opacity: 1; stroke-width: 1px;"/><path class="xgrid crisp" transform="translate(306.08000000000004,0)" d="M0,60v216" style="stroke: rgb(238, 238, 238); stroke-opacity: 1; stroke-width: 1px;"/></g><g class="y"><path class="ygrid crisp" transform="translate(0,203.31)" d="M60,0h251" style="stroke: rgb(238, 238, 238); stroke-opacity: 1; stroke-width: 1px;"/><path class="ygrid crisp" transform="translate(0,135.93)" d="M60,0h251" style="stroke: rgb(238, 238, 238); stroke-opacity: 1; stroke-width: 1px;"/><path class="ygrid crisp" transform="translate(0,68.56)" d="M60,0h251" style="stroke: rgb(238, 238, 238); stroke-opacity: 1; stroke-width: 1px;"/></g></g><g class="zerolinelayer"><path class="xzl zl crisp" transform="translate(60,0)" d="M0,60v216" style="stroke: rgb(68, 68, 68); stroke-opacity: 1; stroke-width: 1px;"/><path class="yzl zl crisp" transform="translate(0,270.69)" d="M60,0h251" style="stroke: rgb(68, 68, 68); stroke-opacity: 1; stroke-width: 1px;"/></g><path class="xlines-below"/><path class="ylines-below"/><g class="overlines-below"/><g class="xaxislayer-below"/><g class="yaxislayer-below"/><g class="overaxes-below"/><g class="plot" transform="translate(60, 60)" clip-path="url('#clipf785dexyplot')"><g class="scatterlayer mlayer"><g class="trace scatter trace2331d4" style="stroke-miterlimit: 2; opacity: 1;"><g class="fills"/><g class="errorbars"/><g class="lines"><path class="js-line" d="M0,165.65L2.46,167.15L4.92,167.46L9.84,164.93L12.3,164.67L22.15,164.3L24.61,163.72L29.53,163.88L31.99,163.52L51.68,161.18L54.14,161.03L59.06,160.42L61.52,159.72L81.21,158.38L83.67,158L95.97,157.07L98.43,157.12L105.81,157.12L108.27,156.86L118.12,156.71L120.58,156.93L155.03,155.83L157.49,155.99L164.87,155.96L167.33,155.64L206.71,153.31L209.17,153.71L219.01,153.92L221.47,153.54L236.24,153.69L238.7,153.48L251,154.45" style="vector-effect: non-scaling-stroke; fill: none; stroke: rgb(31, 119, 180); stroke-opacity: 1; stroke-width: 2px; opacity: 1;"/></g><g class="points"/><g class="text"/></g><g class="trace scatter tracee598a6" style="stroke-miterlimit: 2; opacity: 1;"><g class="fills"/><g class="errorbars"/><g class="lines"><path class="js-line" d="M0,179.23L4.92,187.1L7.38,187.28L12.3,186.63L14.76,186.89L22.15,187.74L24.61,187.61L31.99,187.95L34.45,187.78L39.37,187.34L41.83,186.81L49.22,184.49L51.68,183.2L63.98,175.87L66.44,175.16L78.75,172.38L81.21,172.22L105.81,172.76L108.27,172.54L130.42,171.99L132.88,172.38L145.19,173.63L147.65,173.7L155.03,172.37L157.49,170.92L159.95,168.26L162.41,164.48L167.33,154.27L169.79,148.58L187.02,111.69L189.48,108.04L194.4,103.22L196.86,101.26L199.32,100.26L201.78,100.74L204.25,101.48L206.71,99.92L211.63,98.07L214.09,97.98L219.01,97.44L221.47,96.6L233.77,96.78L236.24,97.19L243.62,97.75L246.08,97.97L251,96.28" style="vector-effect: non-scaling-stroke; fill: none; stroke: rgb(255, 127, 14); stroke-opacity: 1; stroke-width: 2px; opacity: 1;"/></g><g class="points"/><g class="text"/></g><g class="trace scatter trace431efc" style="stroke-miterlimit: 2; opacity: 1;"><g class="fills"/><g class="errorbars"/><g class="lines"><path class="js-line" d="M0,157.59L4.92,158.55L7.38,157.43L9.84,156.29L12.3,156.32L17.23,156.61L19.69,156.93L27.07,155.93L29.53,156L36.91,154.52L39.37,153.93L51.68,150.44L54.14,149.31L66.44,145.11L68.9,144.47L78.75,141.27L81.21,140.29L91.05,137.29L93.51,137.13L98.43,136.72L100.89,136.34L115.66,135.54L118.12,135.57L123.04,135.42L125.5,134.89L137.8,134.98L140.26,134.29L150.11,134.36L152.57,134.35L157.49,135.14L159.95,134.39L167.33,132.68L169.79,132.46L177.18,134.42L179.64,133.57L187.02,131.47L189.48,131.48L196.86,132.08L199.32,133.52L201.78,135.73L204.25,134.13L206.71,130.26L209.17,130.54L214.09,132.62L216.55,133.07L231.31,133.79L233.77,134.99L236.24,135.61L238.7,134.86L241.16,134.59L243.62,135.16L246.08,135.46L248.54,134.6L251,134.2" style="vector-effect: non-scaling-stroke; fill: none; stroke: rgb(44, 160, 44); stroke-opacity: 1; stroke-width: 2px; opacity: 1;"/></g><g class="points"/><g class="text"/></g><g class="trace scatter tracee401c8" style="stroke-miterlimit: 2; opacity: 1;"><g class="fills"/><g class="errorbars"/><g class="lines"><path class="js-line" d="M0,182.19L4.92,190.59L7.38,191.41L12.3,192.35L14.76,192.99L22.15,194.81L24.61,195.04L31.99,196.32L34.45,196.53L41.83,196.52L44.29,196.25L49.22,195.12L51.68,194.02L59.06,189.44L61.52,187.73L66.44,185.85L68.9,185.32L76.28,184.12L78.75,184.46L86.13,186.8L88.59,187.87L95.97,190.01L98.43,190.42L123.04,193.17L125.5,193.27L140.26,195.75L142.73,196.22L150.11,196.82L152.57,196.63L157.49,194.84L159.95,192.61L162.41,189.24L164.87,184.15L169.79,169.15L172.25,160.56L177.18,140.8L179.64,128.67L189.48,80.42L191.94,71.55L196.86,58.42L199.32,54.92L201.78,54.96L204.25,57.13L211.63,49.31L214.09,49.25L219.01,49.3L221.47,48.77L228.85,50.27L231.31,50.43L241.16,55.83L243.62,56.18L246.08,56.56L248.54,55.54L251,54.02" style="vector-effect: non-scaling-stroke; fill: none; stroke: rgb(214, 39, 40); stroke-opacity: 1; stroke-width: 2px; opacity: 1;"/></g><g class="points"/><g class="text"/></g><g class="trace scatter trace317a2b" style="stroke-miterlimit: 2; opacity: 1;"><g class="fills"/><g class="errorbars"/><g class="lines"><path class="js-line" d="M0,88.01L4.92,79.67L7.38,69.55L12.3,51.83L14.76,45.82L19.69,36.64L22.15,30.81L24.61,25.24L27.07,22.51L31.99,15.58L34.45,13.64L41.83,10.8L44.29,11.25L51.68,13.46L54.14,14.91L56.6,16.29L59.06,16.58L61.52,16.54L63.98,18.53L71.36,27.4L73.82,29.68L86.13,48.01L88.59,52.35L95.97,68.28L98.43,74.9L103.35,87.48L105.81,92.44L110.74,99.96L113.2,103.16L118.12,107.93L120.58,110.05L125.5,112.43L127.96,113.5L137.8,117.59L140.26,117.42L145.19,116.3L147.65,115.14L155.03,111.28L157.49,110.63L162.41,108.56L164.87,107.51L169.79,106.22L172.25,106.57L174.72,107.58L177.18,109.42L182.1,112.12L184.56,112.04L189.48,110.3L191.94,109.04L199.32,104.43L201.78,104.56L204.25,105.72L206.71,104.88L211.63,103.69L214.09,104.22L219.01,104.37L221.47,103.5L226.39,102.42L228.85,100.96L233.77,98.42L236.24,97.57L248.54,91.41L251,89.42" style="vector-effect: non-scaling-stroke; fill: none; stroke: rgb(148, 103, 189); stroke-opacity: 1; stroke-width: 2px; opacity: 1;"/></g><g class="points"/><g class="text"/></g><g class="trace scatter trace636c7a" style="stroke-miterlimit: 2; opacity: 1;"><g class="fills"/><g class="errorbars"/><g class="lines"><path class="js-line" d="M0,175.56L4.92,181.25L7.38,180.5L9.84,179.31L12.3,179.1L22.15,178.55L24.61,178.1L31.99,177.39L34.45,177.03L41.83,175.32L44.29,174.53L56.6,169.21L59.06,167.7L63.98,164.98L66.44,164.26L83.67,159.32L86.13,158.97L132.88,154.97L135.34,155.17L150.11,154.77L152.57,154.37L157.49,153.09L159.95,151.86L164.87,146.9L167.33,143.42L177.18,129.96L179.64,127.15L189.48,116.43L191.94,114.75L199.32,110.84L201.78,110.94L204.25,113.12L206.71,113.44L211.63,111.03L214.09,110.8L231.31,109.73L233.77,109.92L246.08,111.91L248.54,111.47L251,110.8" style="vector-effect: non-scaling-stroke; fill: none; stroke: rgb(140, 86, 75); stroke-opacity: 1; stroke-width: 2px; opacity: 1;"/></g><g class="points"/><g class="text"/></g><g class="trace scatter trace9f9d71" style="stroke-miterlimit: 2; opacity: 1;"><g class="fills"/><g class="errorbars"/><g class="lines"><path class="js-line" d="M0,164.88L4.92,164.37L7.38,162.39L9.84,160.73L12.3,160.08L39.37,153.49L41.83,153.1L56.6,152.26L59.06,151.83L63.98,151.27L66.44,151.52L71.36,151.46L73.82,151.13L86.13,150.21L88.59,149.98L100.89,150.04L103.35,150.04L118.12,149.39L120.58,149.62L162.41,148.71L164.87,148.73L174.72,148.68L177.18,148.9L184.56,148.85L187.02,148.75L201.78,148.46L204.25,148.61L211.63,148.71L214.09,148.96L251,150.76" style="vector-effect: non-scaling-stroke; fill: none; stroke: rgb(227, 119, 194); stroke-opacity: 1; stroke-width: 2px; opacity: 1;"/></g><g class="points"/><g class="text"/></g><g class="trace scatter traceff947b" style="stroke-miterlimit: 2; opacity: 1;"><g class="fills"/><g class="errorbars"/><g class="lines"><path class="js-line" d="M0,158.78L4.92,158.87L7.38,156.67L9.84,154.71L12.3,154.05L22.15,152.6L24.61,151.53L29.53,151.08L31.99,150.43L49.22,145.38L51.68,144.59L63.98,140.07L66.44,139.85L71.36,138.62L73.82,137.72L86.13,134.43L88.59,133.85L95.97,133.1L98.43,132.86L118.12,131.72L120.58,132.02L130.42,130.97L132.88,131.18L137.8,131.07L140.26,130.56L150.11,130.39L152.57,130.39L159.95,130.69L162.41,129.97L172.25,128.81L174.72,129.46L179.64,129.11L182.1,128.49L187.02,127.01L189.48,126.69L196.86,126.6L199.32,127.41L201.78,129.03L204.25,128.6L206.71,126.23L209.17,126.22L216.55,127.83L219.01,127.88L223.93,127.73L226.39,128.18L231.31,128.46L233.77,129.4L236.24,129.89L238.7,129.46L243.62,129.86L246.08,130.23L251,129.43" style="vector-effect: non-scaling-stroke; fill: none; stroke: rgb(127, 127, 127); stroke-opacity: 1; stroke-width: 2px; opacity: 1;"/></g><g class="points"/><g class="text"/></g><g class="trace scatter trace32fc6c" style="stroke-miterlimit: 2; opacity: 1;"><g class="fills"/><g class="errorbars"/><g class="lines"><path class="js-line" d="M0,183.48L4.92,192.19L7.38,194.03L29.53,200.7L31.99,200.96L46.75,202.6L49.22,202.62L66.44,202.94L68.9,203.09L155.03,205.03L157.49,204.64L164.87,204.15L167.33,203.78L177.18,201.46L179.64,200.62L189.48,198.84L191.94,198.46L199.32,197.24L201.78,196.18L204.25,194.4L206.71,194.78L211.63,196.53L214.09,196.62L228.85,195.57L231.31,195.39L236.24,194.4L238.7,193.7L246.08,194.29L248.54,194.5L251,194.64" style="vector-effect: non-scaling-stroke; fill: none; stroke: rgb(188, 189, 34); stroke-opacity: 1; stroke-width: 2px; opacity: 1;"/></g><g class="points"/><g class="text"/></g></g></g><g class="overplot"/><path class="xlines-above crisp" d="M0,0" style="fill: none;"/><path class="ylines-above crisp" d="M0,0" style="fill: none;"/><g class="overlines-above"/><g class="xaxislayer-above"><g class="xtick"><text text-anchor="middle" x="0" y="289" transform="translate(60,0)" style="font-family: 'Open Sans', verdana, arial, sans-serif; font-size: 12px; fill: rgb(68, 68, 68); fill-opacity: 1; white-space: pre;">0</text></g><g class="xtick"><text text-anchor="middle" x="0" y="289" transform="translate(183.04000000000002,0)" style="font-family: 'Open Sans', verdana, arial, sans-serif; font-size: 12px; fill: rgb(68, 68, 68); fill-opacity: 1; white-space: pre;">50</text></g><g class="xtick"><text text-anchor="middle" x="0" y="289" transform="translate(306.08000000000004,0)" style="font-family: 'Open Sans', verdana, arial, sans-serif; font-size: 12px; fill: rgb(68, 68, 68); fill-opacity: 1; white-space: pre;">100</text></g></g><g class="yaxislayer-above"><g class="ytick"><text text-anchor="end" x="59" y="4.199999999999999" transform="translate(0,270.69)" style="font-family: 'Open Sans', verdana, arial, sans-serif; font-size: 12px; fill: rgb(68, 68, 68); fill-opacity: 1; white-space: pre;">0</text></g><g class="ytick"><text text-anchor="end" x="59" y="4.199999999999999" transform="translate(0,203.31)" style="font-family: 'Open Sans', verdana, arial, sans-serif; font-size: 12px; fill: rgb(68, 68, 68); fill-opacity: 1; white-space: pre;">0.2</text></g><g class="ytick"><text text-anchor="end" x="59" y="4.199999999999999" transform="translate(0,135.93)" style="font-family: 'Open Sans', verdana, arial, sans-serif; font-size: 12px; fill: rgb(68, 68, 68); fill-opacity: 1; white-space: pre;">0.4</text></g><g class="ytick"><text text-anchor="end" x="59" y="4.199999999999999" transform="translate(0,68.56)" style="font-family: 'Open Sans', verdana, arial, sans-serif; font-size: 12px; fill: rgb(68, 68, 68); fill-opacity: 1; white-space: pre;">0.6</text></g></g><g class="overaxes-above"/></g></g><g class="polarlayer"/><g class="ternarylayer"/><g class="geolayer"/><g class="funnelarealayer"/><g class="pielayer"/><g class="treemaplayer"/><g class="sunburstlayer"/><g class="glimages"/><defs id="topdefs-f785de"><g class="clips"/></defs><g class="layer-above"><g class="imagelayer"/><g class="shapelayer"/></g><g class="infolayer"><g class="g-gtitle"><text class="gtitle" x="185.5" y="30" text-anchor="middle" dy="0em" style="font-family: 'Open Sans', verdana, arial, sans-serif; font-size: 17px; fill: rgb(68, 68, 68); opacity: 1; font-weight: normal; white-space: pre;">Mean spectrum/class</text></g><g class="g-xtitle"/><g class="g-ytitle"/></g></svg>