<svg class="main-svg" xmlns="http://www.w3.org/2000/svg" xmlns:xlink="http://www.w3.org/1999/xlink" width="373" height="336" style="" viewBox="0 0 373 336"><rect x="0" y="0" width="373" height="336" style="fill: rgb(255, 255, 255); fill-opacity: 1;"/><defs id="defs-6a6019"><g class="clips"><clipPath id="clip6a6019xyplot" class="plotclip"><rect width="253" height="216"/></clipPath><clipPath class="axesclip" id="clip6a6019x"><rect x="60" y="0" width="253" height="336"/></clipPath><clipPath class="axesclip" id="clip6a6019y"><rect x="0" y="60" width="373" height="216"/></clipPath><clipPath class="axesclip" id="clip6a6019xy"><rect x="60" y="60" width="253" height="216"/></clipPath></g><g class="gradients"/></defs><g class="bglayer"/><g class="layer-below"><g class="imagelayer"/><g class="shapelayer"/></g><g class="cartesianlayer"><g class="subplot xy"><g class="layer-subplot"><g class="shapelayer"/><g class="imagelayer"/></g><g class="gridlayer"><g class="x"><path class="xgrid crisp" transform="translate(141.09,0)" d="M0,60v216" style="stroke: rgb(238, 238, 238); stroke-opacity: 1; stroke-width: 1px;"/><path class="xgrid crisp" transform="translate(222.18,0)" d="M0,60v216" style="stroke: rgb(238, 238, 238); stroke-opacity: 1; stroke-width: 1px;"/><path class="xgrid crisp" transform="translate(303.27,0)" d="M0,60v216" style="stroke: rgb(238, 238, 238); stroke-opacity: 1; stroke-width: 1px;"/></g><g class="y"><path class="ygrid crisp" transform="translate(0,262.62)" d="M60,0h253" style="stroke: rgb(238, 238, 238); stroke-opacity: 1; stroke-width: 1px;"/><path class="ygrid crisp" transform="translate(0,224.26)" d="M60,0h253" style="stroke: rgb(238, 238, 238); stroke-opacity: 1; stroke-width: 1px;"/><path class="ygrid crisp" transform="translate(0,185.89)" d="M60,0h253" style="stroke: rgb(238, 238, 238); stroke-opacity: 1; stroke-width: 1px;"/><path class="ygrid crisp" transform="translate(0,147.53)" d="M60,0h253" style="stroke: rgb(238, 238, 238); stroke-opacity: 1; stroke-width: 1px;"/><path class="ygrid crisp" transform="translate(0,109.16)" d="M60,0h253" style="stroke: rgb(238, 238, 238); stroke-opacity: 1; stroke-width: 1px;"/><path class="ygrid crisp" transform="translate(0,70.8)" d="M60,0h253" style="stroke: rgb(238, 238, 238); stroke-opacity: 1; stroke-width: 1px;"/></g></g><g class="zerolinelayer"><path class="xzl zl crisp" transform="translate(60,0)" d="M0,60v216" style="stroke: rgb(68, 68, 68); stroke-opacity: 1; stroke-width: 1px;"/></g><path class="xlines-below"/><path class="ylines-below"/><g class="overlines-below"/><g class="xaxislayer-below"/><g class="yaxislayer-below"/><g class="overaxes-below"/><g class="plot" transform="translate(60, 60)" clip-path="url('#clip6a6019xyplot')"><g class="scatterlayer mlayer"><g class="trace scatter tracebb3172" style="stroke-miterlimit: 2; opacity: 1;"><g class="fills"/><g class="errorbars"/><g class="lines"><path class="js-line" d="M0,205.2L0.41,201.52L0.81,116.84L1.22,98.43L1.62,121.99L2.03,138.19L2.43,76.34L2.84,52.77L3.24,65.29L3.65,49.83L4.05,91.8L4.46,29.21L4.87,49.09L5.27,47.62L5.68,45.41L6.89,25.53L7.3,72.65L8.51,20.37L8.92,27.74L10.14,21.11L10.54,21.85L10.95,32.15L11.76,21.85L12.16,26.26L12.57,49.09L12.97,22.58L13.38,18.16L13.79,37.31L14.19,18.16L14.6,30.68L15,23.32L15.41,17.43L15.81,31.42L16.62,18.9L17.03,29.95L17.84,17.43L18.25,28.47L18.65,17.43L19.06,27L19.46,15.95L19.87,20.37L20.27,23.32L20.68,28.47L21.08,21.11L21.49,15.22L21.89,15.95L22.3,19.64L22.71,38.78L23.11,15.95L23.52,15.22L23.92,33.63L25.14,13.01L25.54,27L26.35,21.11L26.76,32.15L27.98,15.22L28.38,17.43L29.6,16.69L30,14.48L30.81,23.32L31.22,95.48L31.63,18.9L32.03,23.32L32.44,17.43L32.84,17.43L33.25,22.58L34.06,18.16L34.46,27L35.68,16.69L36.08,20.37L36.49,13.75L36.9,20.37L37.3,21.11L37.71,30.68L38.11,14.48L38.52,17.43L38.92,23.32L39.73,16.69L40.14,18.16L40.54,15.22L40.95,18.16L41.36,13.75L41.76,25.53L42.17,26.26L42.57,24.79L43.79,13.01L44.19,14.48L45,18.9L45.41,81.49L46.22,14.48L46.63,31.42L47.44,15.95L47.84,16.69L48.25,18.9L48.65,13.75L49.06,13.01L49.46,17.43L49.87,13.75L50.28,15.22L50.68,18.9L51.09,17.43L51.49,18.9L52.3,13.01L52.71,18.9L53.11,19.64L53.52,15.22L53.92,12.27L54.33,14.48L54.74,15.22L55.14,15.95L55.55,14.48L55.95,17.43L56.36,14.48L56.76,12.27L57.17,14.48L57.57,13.75L57.98,21.85L58.38,22.58L58.79,17.43L59.2,14.48L59.6,15.95L60.01,15.22L60.41,13.01L60.82,14.48L61.22,18.16L62.44,13.75L62.84,15.22L63.25,21.11L63.66,13.75L64.06,13.01L64.47,14.48L64.87,16.69L65.28,13.75L65.68,12.27L66.09,18.9L66.49,28.47L66.9,20.37L67.3,27L67.71,26.26L68.12,18.16L68.52,30.68L68.93,24.05L69.33,15.22L69.74,15.22L70.14,21.11L70.55,14.48L70.95,24.05L71.36,13.01L71.76,13.75L72.17,21.85L73.39,14.48L73.79,14.48L74.2,14.48L74.6,16.69L75.01,26.26L75.41,17.43L75.82,14.48L76.22,17.43L77.04,21.11L77.44,15.95L78.25,21.11L78.66,13.75L79.06,14.48L79.47,25.53L79.87,24.05L80.28,36.57L80.68,13.75L81.09,21.11L81.5,21.85L82.31,13.75L82.71,13.75L83.52,13.01L83.93,19.64L84.74,13.01L85.14,15.22L85.55,14.48L85.96,15.22L86.36,12.27L87.17,15.95L87.58,13.75L88.39,13.01L88.79,20.37L89.6,14.48L90.01,46.15L90.42,14.48L90.82,15.95L91.23,23.32L92.04,13.75L92.44,34.36L93.66,12.27L94.06,13.75L94.47,12.27L94.88,15.22L95.28,14.48L95.69,18.16L96.09,12.27L96.5,15.95L96.9,13.75L97.31,13.01L97.71,14.48L98.52,13.75L98.93,20.37L99.74,13.01L100.15,14.48L100.55,13.75L100.96,12.27L101.36,13.75L101.77,14.48L102.17,21.85L102.58,11.54L102.98,32.89L104.2,12.27L104.61,18.16L105.01,13.75L105.42,21.85L106.23,13.75L106.63,13.75L107.04,15.22L107.44,46.88L108.25,13.01L108.66,34.36L109.47,13.75L109.88,14.48L110.28,15.22L111.09,13.01L111.5,29.21L111.9,13.01L112.31,14.48L112.71,13.75L113.12,17.43L113.53,12.27L114.34,15.95L114.74,13.01L115.15,21.11L115.55,13.01L115.96,11.54L116.36,13.01L116.77,12.27L117.17,14.48L117.58,13.75L117.99,17.43L118.39,18.9L118.8,15.95L119.2,12.27L119.61,13.01L120.01,13.75L120.42,13.75L120.82,16.69L122.04,14.48L122.45,13.75L122.85,15.22L123.26,13.75L123.66,15.22L124.07,14.48L124.47,13.01L125.69,17.43L126.09,16.69L126.5,41.73L126.91,46.88L127.31,15.22L127.72,14.48L128.12,79.28L128.53,13.01L128.93,16.69L129.34,13.75L129.74,15.95L130.15,14.48L130.55,12.27L130.96,12.27L131.37,14.48L131.77,11.54L132.18,14.48L132.99,23.32L133.39,15.22L134.61,11.54L135.01,12.27L135.42,13.75L135.83,14.48L136.23,11.54L136.64,13.01L137.04,21.11L137.45,21.85L137.85,11.54L138.66,13.01L139.07,17.43L139.47,12.27L139.88,15.95L140.29,21.85L141.5,12.27L141.91,15.22L143.53,12.27L143.93,13.75L144.75,12.27L145.15,18.16L145.56,12.27L145.96,13.75L146.37,13.75L147.18,15.22L147.58,15.22L147.99,10.8L148.39,18.9L148.8,13.01L149.21,13.75L149.61,16.69L150.02,12.27L150.42,14.48L150.83,21.11L151.23,21.85L151.64,13.01L152.85,11.54L153.26,15.22L154.88,11.54L155.29,13.01L155.69,11.54L156.1,14.48L156.5,15.22L156.91,12.27L157.31,14.48L157.72,12.27L158.13,17.43L158.53,14.48L158.94,14.48L159.34,16.69L159.75,14.48L160.15,15.22L160.56,13.01L160.96,16.69L161.37,36.57L162.18,13.01L162.58,18.16L162.99,20.37L163.4,13.01L164.21,11.54L164.61,13.01L165.02,17.43L165.42,11.54L166.23,13.01L166.64,21.11L167.45,13.01L167.86,13.75L168.26,13.01L168.67,14.48L169.07,18.16L169.48,14.48L169.88,14.48L170.29,13.01L171.91,12.27L172.32,16.69L173.13,13.01L173.53,20.37L173.94,11.54L174.34,17.43L174.75,11.54L175.15,21.85L175.56,15.95L175.96,12.27L177.18,13.01L177.59,15.22L178.4,12.27L178.8,13.01L179.61,11.54L180.02,14.48L180.83,12.27L181.24,43.94L182.05,12.27L182.45,15.22L182.86,15.95L183.26,13.01L184.48,13.01L184.88,17.43L185.29,11.54L185.7,13.01L186.1,12.27L187.32,13.01L187.72,11.54L188.94,18.16L189.34,11.54L189.75,15.95L190.16,12.27L190.56,11.54L190.97,14.48L191.37,13.01L191.78,13.01L192.18,23.32L192.59,11.54L192.99,13.75L193.4,12.27L193.8,11.54L195.02,13.01L195.43,12.27L195.83,14.48L196.24,12.27L196.64,15.95L197.05,12.27L197.45,13.75L197.86,11.54L198.26,11.54L198.67,25.53L199.08,24.05L199.48,13.75L199.89,20.37L200.29,11.54L200.7,21.85L201.1,102.85L201.91,12.27L202.32,12.27L203.13,13.75L203.54,12.27L203.94,13.01L204.35,11.54L204.75,13.75L205.16,25.53L205.97,13.75L206.37,15.95L207.18,12.27L207.59,13.01L208.81,17.43L209.21,12.27L210.02,17.43L210.43,13.01L210.83,17.43L211.24,13.01L211.64,21.85L212.05,13.75L212.46,20.37L212.86,12.27L213.67,11.54L214.08,25.53L214.89,13.01L215.29,12.27L215.7,17.43L216.1,12.27L216.51,11.54L216.92,12.27L217.32,13.01L217.73,14.48L218.13,10.8L218.94,15.22L219.35,14.48L219.75,15.22L220.16,13.01L220.56,14.48L220.97,13.75L221.38,17.43L221.78,14.48L222.19,11.54L222.59,18.9L223,16.69L223.4,15.22L223.81,11.54L224.21,12.27L224.62,14.48L225.43,13.01L225.83,13.75L226.65,11.54L227.05,18.9L227.86,11.54L228.27,13.75L228.67,11.54L229.08,19.64L229.48,98.43L229.89,23.32L231.11,13.01L231.51,15.95L231.92,11.54L232.32,12.27L232.73,13.75L233.94,12.27L234.35,15.95L235.57,11.54L235.97,12.27L236.38,13.01L236.78,11.54L237.19,14.48L237.59,12.27L238,13.01L238.81,11.54L239.21,14.48L239.62,10.8L240.03,15.22L240.84,11.54L241.24,38.78L242.05,12.27L242.46,13.01L242.86,11.54L243.27,12.27L243.67,12.27L244.49,12.27L244.89,14.48L245.3,10.8L245.7,13.01L246.11,11.54L246.51,17.43L246.92,11.54L248.13,15.22L248.54,16.69L249.76,12.27L250.16,18.16L250.97,10.8L251.38,12.27L251.78,13.75L252.59,11.54L253,14.48" style="vector-effect: non-scaling-stroke; fill: none; stroke: rgb(31, 119, 180); stroke-opacity: 1; stroke-width: 2px; opacity: 1;"/></g><g class="points"/><g class="text"/></g></g></g><g class="overplot"/><path class="xlines-above crisp" d="M0,0" style="fill: none;"/><path class="ylines-above crisp" d="M0,0" style="fill: none;"/><g class="overlines-above"/><g class="xaxislayer-above"><g class="xtick"><text text-anchor="middle" x="0" y="289" transform="translate(60,0)" style="font-family: 'Open Sans', verdana, arial, sans-serif; font-size: 12px; fill: rgb(68, 68, 68); fill-opacity: 1; white-space: pre;">0</text></g><g class="xtick"><text text-anchor="middle" x="0" y="289" transform="translate(141.09,0)" style="font-family: 'Open Sans', verdana, arial, sans-serif; font-size: 12px; fill: rgb(68, 68, 68); fill-opacity: 1; white-space: pre;">200</text></g><g class="xtick"><text text-anchor="middle" x="0" y="289" transform="translate(222.18,0)" style="font-family: 'Open Sans', verdana, arial, sans-serif; font-size: 12px; fill: rgb(68, 68, 68); fill-opacity: 1; white-space: pre;">400</text></g><g class="xtick"><text text-anchor="middle" x="0" y="289" transform="translate(303.27,0)" style="font-family: 'Open Sans', verdana, arial, sans-serif; font-size: 12px; fill: rgb(68, 68, 68); fill-opacity: 1; white-space: pre;">600</text></g></g><g class="yaxislayer-above"><g class="ytick"><text text-anchor="end" x="59" y="4.199999999999999" transform="translate(0,262.62)" style="font-family: 'Open Sans', verdana, arial, sans-serif; font-size: 12px; fill: rgb(68, 68, 68); fill-opacity: 1; white-space: pre;">0.75</text></g><g class="ytick"><text text-anchor="end" x="59" y="4.199999999999999" transform="translate(0,224.26)" style="font-family: 'Open Sans', verdana, arial, sans-serif; font-size: 12px; fill: rgb(68, 68, 68); fill-opacity: 1; white-space: pre;">0.8</text></g><g class="ytick"><text text-anchor="end" x="59" y="4.199999999999999" transform="translate(0,185.89)" style="font-family: 'Open Sans', verdana, arial, sans-serif; font-size: 12px; fill: rgb(68, 68, 68); fill-opacity: 1; white-space: pre;">0.85</text></g><g class="ytick"><text text-anchor="end" x="59" y="4.199999999999999" transform="translate(0,147.53)" style="font-family: 'Open Sans', verdana, arial, sans-serif; font-size: 12px; fill: rgb(68, 68, 68); fill-opacity: 1; white-space: pre;">0.9</text></g><g class="ytick"><text text-anchor="end" x="59" y="4.199999999999999" transform="translate(0,109.16)" style="font-family: 'Open Sans', verdana, arial, sans-serif; font-size: 12px; fill: rgb(68, 68, 68); fill-opacity: 1; white-space: pre;">0.95</text></g><g class="ytick"><text text-anchor="end" x="59" y="4.199999999999999" transform="translate(0,70.8)" style="font-family: 'Open Sans', verdana, arial, sans-serif; font-size: 12px; fill: rgb(68, 68, 68); fill-opacity: 1; white-space: pre;">1</text></g></g><g class="overaxes-above"/></g></g><g class="polarlayer"/><g class="ternarylayer"/><g class="geolayer"/><g class="funnelarealayer"/><g class="pielayer"/><g class="treemaplayer"/><g class="sunburstlayer"/><g class="glimages"/><defs id="topdefs-6a6019"><g class="clips"/></defs><g class="layer-above"><g class="imagelayer"/><g class="shapelayer"/></g><g class="infolayer"><g class="g-gtitle"><text class="gtitle" x="186.5" y="30" text-anchor="middle" dy="0em" style="font-family: 'Open Sans', verdana, arial, sans-serif; font-size: 17px; fill: rgb(68, 68, 68); opacity: 1; font-weight: normal; white-space: pre;">Validation accuracy</text></g><g class="g-xtitle"><text class="xtitle" x="186.5" y="328" text-anchor="middle" style="font-family: 'Open Sans', verdana, arial, sans-serif; font-size: 14px; fill: rgb(68, 68, 68); opacity: 1; font-weight: normal; white-space: pre;">Epochs</text></g><g class="g-ytitle"><text class="ytitle" transform="rotate(-90,22,168)" x="22" y="168" text-anchor="middle" style="font-family: 'Open Sans', verdana, arial, sans-serif; font-size: 14px; fill: rgb(68, 68, 68); opacity: 1; font-weight: normal; white-space: pre;">Accuracy</text></g></g></svg>